<?xml version="1.0" encoding="UTF-8"?>
<svg width="35px" height="30px" viewBox="0 0 35 30" version="1.1" xmlns="http://www.w3.org/2000/svg" xmlns:xlink="http://www.w3.org/1999/xlink">
    <!-- Generator: sketchtool 54.1 (76490) - https://sketchapp.com -->
    <title>2B4A463F-F3A1-45D9-8EC3-76305A4E96F3</title>
    <desc>Created with sketchtool.</desc>
    <defs>
        <polygon id="path-1" points="0.0315083329 0.670541669 33.054301 0.670541669 33.054301 24.8911872 0.0315083329 24.8911872"></polygon>
    </defs>
    <g id="01_DESK_MOB_HOM" stroke="none" stroke-width="1" fill="none" fill-rule="evenodd">
        <g id="01_HOM_11a" transform="translate(-90.000000, -1814.000000)">
            <g id="Group-2" transform="translate(88.000000, 1804.000000)">
                <g id="iconografia/marca/on/movil" transform="translate(0.000000, 6.000000)">
                    <g id="Page-1" transform="translate(2.375000, 3.958333)">
                        <path d="M6.08166236,21.7683785 L6.08166236,26.2222949 C6.08166236,27.9671282 7.49716238,29.3826281 9.24278741,29.3826281 C10.9876208,29.3826281 12.4031208,27.9671282 12.4031208,26.2222949 L12.4031208,21.6797118" id="Fill-1" fill="#B5B5B5"></path>
                        <path d="M2.94824592,19.749708 L15.1129961,19.749708 C15.4866627,19.749708 15.7898711,19.4464997 15.7898711,19.0736247 L15.7898711,9.89108327 C15.7898711,9.51662494 15.4866627,9.21420829 15.1129961,9.21420829 L2.94824592,9.21420829 C2.57457924,9.21420829 2.27137091,9.51662494 2.27137091,9.89108327 L2.27137091,19.0736247 C2.27137091,19.4464997 2.57457924,19.749708 2.94824592,19.749708" id="Fill-3" fill="#B5B5B5"></path>
                        <path d="M16.241516,9.05452907 L32.7984327,3.21123734 C33.2385993,3.055279 33.7009327,3.38223734 33.7009327,3.84932068 L33.7009327,25.1142793 C33.7009327,25.5813626 33.2385993,25.9083209 32.7984327,25.7531543 L16.241516,19.9090709 C15.970766,19.8140709 15.7894743,19.5575709 15.7894743,19.2709875 L15.7894743,9.69340408 C15.7894743,9.40602907 15.970766,9.15032074 16.241516,9.05452907" id="Fill-5" fill="#FCD603"></path>
                        <path d="M18.6625118,11.4770297 C18.3751368,11.4770297 18.1043868,11.300488 17.9990951,11.0146963 C17.8637201,10.6481546 18.0513451,10.241238 18.4170951,10.1066546 L27.8870117,6.60669616 C28.2527617,6.47052949 28.66047,6.6581545 28.795845,7.02469618 C28.93122,7.39123786 28.743595,7.79815454 28.3770534,7.93273788 L18.9079285,11.4326963 C18.8271785,11.4627797 18.7440535,11.4770297 18.6625118,11.4770297" id="Fill-7" fill="#F8F9FD"></path>
                        <path d="M0.395833332,15.1520254 C0.474999999,15.183692 0.554166665,15.200317 0.641249998,15.200317 C0.815416664,15.200317 0.973749997,15.136192 1.10041666,15.0095254 C1.21916666,14.8907754 1.29041666,14.732442 1.29041666,14.5582754 C1.29041666,14.4719837 1.26666666,14.392817 1.235,14.3128587 C1.20333333,14.233692 1.15583333,14.162442 1.10041666,14.0991087 C0.918333331,13.924942 0.633333331,13.8624003 0.395833332,13.9645254 C0.316666666,13.9969837 0.245416666,14.0444837 0.189999999,14.0991087 C0.126666666,14.162442 0.0791666664,14.233692 0.0474999999,14.3128587 C0.0158333333,14.392817 0,14.4719837 0,14.5582754 C0,14.732442 0.0633333331,14.8907754 0.189999999,15.0095254 C0.245416666,15.0728587 0.316666666,15.1203587 0.395833332,15.1520254" id="Fill-9" fill="#5C5C60"></path>
                        <g id="Group-13" transform="translate(0.000000, 0.121204)">
                            <mask id="mask-2" fill="white">
                                <use xlink:href="#path-1"></use>
                            </mask>
                            <g id="Clip-12"></g>
                            <path d="M31.6395921,23.3711873 L15.1436339,17.5492707 L15.1436339,8.0136458 L31.6395921,2.19093753 L31.6395921,23.3711873 Z M5.66025844,17.3410627 L13.7281334,17.3410627 L13.7281334,8.2202711 L5.66025844,8.2202711 L5.66025844,17.3410627 Z M32.565051,0.883104181 C32.258676,0.666187515 31.864426,0.611562515 31.5097593,0.735854181 L14.2340088,6.83327083 C14.1532588,6.81585417 14.0693421,6.80477083 13.9838421,6.80477083 L4.50125847,6.80477083 L3.25675843,6.80477083 L1.19050837,6.80477083 C0.550841682,6.80477083 0.0315083329,7.32489583 0.0315083329,7.9645625 L0.0315083329,12.2743958 C0.0315083329,12.6654792 0.348175009,12.9813542 0.738466687,12.9813542 C1.12955003,12.9813542 1.44621671,12.6654792 1.44621671,12.2743958 L1.44621671,8.21947916 L3.25675843,8.21947916 L4.24555013,8.21947916 L4.24555013,17.3410625 L4.22655013,17.3410625 L1.44621671,17.3410625 L1.44621671,16.6293541 C1.44621671,16.2390625 1.12955003,15.9223958 0.738466687,15.9223958 C0.348175009,15.9223958 0.0315083329,16.2390625 0.0315083329,16.6293541 L0.0315083329,17.5975625 C0.0315083329,18.2364375 0.550841682,18.7557708 1.19050837,18.7557708 L4.22655013,18.7557708 L4.50125847,18.7557708 L13.9838421,18.7557708 C14.0693421,18.7557708 14.1516754,18.7446875 14.2316338,18.7272708 L31.5097593,24.8254791 C31.6348426,24.8698125 31.7654676,24.8911875 31.8945093,24.8911875 C32.1320093,24.8911875 32.3663426,24.8183541 32.565051,24.6782291 C32.871426,24.4613125 33.054301,24.1082291 33.054301,23.7321875 L33.054301,1.82914585 C33.054301,1.45310418 32.871426,1.10002085 32.565051,0.883104181 L32.565051,0.883104181 Z" id="Fill-11" fill="#5C5C60" mask="url(#mask-2)"></path>
                        </g>
                        <path d="M14.4355666,21.6771001 L10.5666916,21.6771001 L10.5666916,25.5451835 C10.5666916,26.8981418 9.46706663,27.9977669 8.11410832,27.9977669 C6.76115001,27.9977669 5.66073336,26.8981418 5.66073336,25.5451835 L5.66073336,21.3311417 C5.66073336,20.9400584 5.34406669,20.6233917 4.95298337,20.6233917 C4.56190004,20.6233917 4.24523338,20.9400584 4.24523338,21.3311417 L4.24523338,25.5451835 C4.24523338,27.6779335 5.98135835,29.4124752 8.11410832,29.4124752 C10.2468583,29.4124752 11.9813999,27.6779335 11.9813999,25.5451835 L11.9813999,23.0918084 L14.4355666,23.0918084 C14.8266499,23.0918084 15.1433165,22.7751418 15.1433165,22.3848501 C15.1433165,21.9937667 14.8266499,21.6771001 14.4355666,21.6771001" id="Fill-14" fill="#5C5C60"></path>
                    </g>
                </g>
            </g>
        </g>
    </g>
</svg>