<?xml version="1.0" encoding="UTF-8"?>
<svg width="32px" height="32px" viewBox="0 0 32 32" version="1.1" xmlns="http://www.w3.org/2000/svg" xmlns:xlink="http://www.w3.org/1999/xlink">
    <!-- Generator: sketchtool 54.1 (76490) - https://sketchapp.com -->
    <title>33B22A26-010D-4E51-854E-706D438628E7</title>
    <desc>Created with sketchtool.</desc>
    <defs>
        <polygon id="path-1" points="0 0.00638277161 11.0466792 0.00638277161 11.0466792 20.5307663 0 20.5307663"></polygon>
        <polygon id="path-3" points="0.596278469 0.0989583333 25.990893 0.0989583333 25.990893 31.6666667 0.596278469 31.6666667"></polygon>
        <polygon id="path-5" points="0 32.3594542 31.532876 32.3594542 31.532876 0.791745846 0 0.791745846"></polygon>
    </defs>
    <g id="01_DESK_MOB_HOM" stroke="none" stroke-width="1" fill="none" fill-rule="evenodd">
        <g id="01_HOM_11a" transform="translate(-407.000000, -1725.000000)">
            <g id="Group-5" transform="translate(404.000000, 1720.000000)">
                <g id="iconografia/marca/on/movil" transform="translate(0.000000, 1.000000)">
                    <g id="Page-1" transform="translate(3.166667, 3.166667)">
                        <path d="M8.49418757,29.7280325 C6.83247926,29.7280325 5.48031261,28.3766576 5.48031261,26.7149493 L5.48031261,19.4854495 C5.48031261,17.8237412 6.83247926,16.4723663 8.49418757,16.4723663 C10.1551042,16.4723663 11.5072709,17.8237412 11.5072709,19.4854495 L11.5072709,26.7149493 C11.5072709,28.3766576 10.1551042,29.7280325 8.49418757,29.7280325" id="Fill-1" fill="#FCD600"></path>
                        <path d="M25.2196503,29.7280325 C23.5579419,29.7280325 22.2057753,28.3766576 22.2057753,26.7149493 L22.2057753,19.4854495 C22.2057753,17.8237412 23.5579419,16.4723663 25.2196503,16.4723663 C26.8805669,16.4723663 28.2319419,17.8237412 28.2319419,19.4854495 L28.2319419,26.7149493 C28.2319419,28.3766576 26.8805669,29.7280325 25.2196503,29.7280325" id="Fill-3" fill="#FCD600"></path>
                        <path d="M4.10289159,25.7140464 C2.10868329,25.7140464 0.487349992,24.0919214 0.487349992,22.0985046 C0.487349992,20.1050879 2.10868329,18.4837545 4.10289159,18.4837545" id="Fill-5" fill="#B4B4B4"></path>
                        <path d="M27.442413,18.1947963 C29.4358297,18.1947963 31.057163,19.8169214 31.057163,21.8095465 C31.057163,23.8037549 29.4358297,25.4250883 27.442413,25.4250883" id="Fill-7" fill="#B4B4B4"></path>
                        <path d="M4.64177917,7.47523351 C4.76052917,7.59398351 4.92677917,7.66523351 5.10094583,7.66523351 C5.26719583,7.66523351 5.43344583,7.59398351 5.55219583,7.47523351 C5.60840417,7.41981684 5.6551125,7.34856683 5.69469583,7.26940017 C5.7263625,7.1902335 5.7429875,7.10315016 5.7429875,7.02398349 C5.7429875,6.84981682 5.6717375,6.68356681 5.55219583,6.56481681 C5.37090417,6.39065013 5.08590417,6.3273168 4.84840417,6.43023347 C4.76844583,6.46190014 4.69719584,6.50940014 4.64177917,6.56481681 C4.52382084,6.68356681 4.45257084,6.84981682 4.45257084,7.02398349 C4.45257084,7.10315016 4.4676125,7.1902335 4.49927917,7.26940017 C4.53094584,7.34856683 4.5792375,7.41981684 4.64177917,7.47523351" id="Fill-9" fill="#5C5C60"></path>
                        <g id="Group-13" transform="translate(0.000000, 8.609454)">
                            <mask id="mask-2" fill="white">
                                <use xlink:href="#path-1"></use>
                            </mask>
                            <g id="Clip-12"></g>
                            <path d="M9.64147075,16.8146832 C9.64147075,18.0884749 8.60438743,19.1255583 7.33138744,19.1255583 C6.05838744,19.1255583 5.02130412,18.0884749 5.02130412,16.8146832 L5.02130412,9.58439136 C5.02130412,8.31139132 6.05838744,7.27589129 7.33138744,7.27589129 C8.60438743,7.27589129 9.64147075,8.31139132 9.64147075,9.58439136 L9.64147075,16.8146832 Z M1.40576252,13.1999332 C1.40576252,11.8382665 2.3494292,10.6998498 3.6160959,10.3831831 L3.6160959,16.0174749 C2.3494292,15.7008082 1.40576252,14.5623915 1.40576252,13.1999332 L1.40576252,13.1999332 Z M11.0466795,9.5843915 C11.0466795,7.53634987 9.38022115,5.8690999 7.33138775,5.8690999 C5.50501269,5.8690999 3.9905543,7.19672488 3.68180429,8.93522485 C3.56859595,8.95105818 3.45697095,8.97164151 3.34692928,8.99697485 L3.34692928,6.50876656 C3.34692928,4.58501659 3.74830429,2.73172495 4.53917932,1.00193332 C4.70067933,0.648849989 4.54551265,0.231641662 4.19163764,0.0701416652 C3.83697096,-0.091358332 3.42213762,0.0645999987 3.25984594,0.417683326 C2.38505425,2.33272496 1.94092923,4.38155826 1.94092923,6.50876656 L1.94092923,9.59943317 C0.77322086,10.3720998 -0.000237500011,11.6965581 -0.000237500011,13.1999331 C-0.000237500011,15.3635581 1.60209589,17.156683 3.68180429,17.465433 C3.99134597,19.2047247 5.50501269,20.5307663 7.33138775,20.5307663 C9.38022115,20.5307663 11.0466795,18.864308 11.0466795,16.814683 L11.0466795,9.5843915 Z" id="Fill-11" fill="#5C5C60" mask="url(#mask-2)"></path>
                        </g>
                        <g id="Group-16" transform="translate(5.541667, 0.692788)">
                            <mask id="mask-4" fill="white">
                                <use xlink:href="#path-3"></use>
                            </mask>
                            <g id="Clip-15"></g>
                            <path d="M22.3761415,23.9335086 L22.3761415,18.3008005 C23.6420165,18.6166754 24.5856831,19.7550921 24.5856831,21.1167587 C24.5856831,22.479217 23.6420165,23.6176336 22.3761415,23.9335086 M19.8127248,26.7217591 C19.9425581,26.3686757 19.9655164,26.0884257 19.9655164,25.9372174 L19.9655164,24.1290507 C19.9655164,23.741134 19.6512248,23.4260506 19.2625164,23.4260506 L18.0575998,23.4260506 C17.6696831,23.4260506 17.3545998,23.741134 17.3545998,24.1290507 C17.3545998,24.5169673 17.6696831,24.8320507 18.0575998,24.8320507 L18.5603081,24.8320507 L18.5603081,25.9372174 C18.5603081,25.9490924 18.5428914,26.3813424 18.0275165,26.9426341 C17.0624748,26.6655507 16.3507665,25.7844257 16.3507665,24.731509 L16.3507665,17.5012172 C16.3507665,16.2282171 17.3870581,15.1919254 18.6608498,15.1919254 C19.9330581,15.1919254 20.9693498,16.2266338 20.9709331,17.4988422 C20.9709331,17.5004255 20.9701414,17.5012172 20.9701414,17.5020088 C20.9701414,17.5035922 20.9709331,17.5043838 20.9709331,17.5059672 L20.9709331,24.7283424 C20.9709331,24.7299257 20.9701414,24.7307174 20.9701414,24.7323007 C20.9701414,24.7330924 20.9709331,24.733884 20.9709331,24.7346757 C20.9693498,25.5857174 20.5006831,26.3227591 19.8127248,26.7217591 M25.990893,21.116758 C25.990893,19.6727581 25.276018,18.3950081 24.1835179,17.6112581 L24.1835179,14.4247998 C24.1835179,6.52554991 17.9515176,0.0987999973 10.2913505,0.0987999973 C6.76289199,0.0987999973 3.39593348,1.47075831 0.811933348,3.96054994 C0.531683333,4.23050827 0.523766666,4.67542493 0.792933347,4.95488326 C1.06289169,5.23434159 1.50860005,5.24304993 1.78726673,4.97388326 C4.10843352,2.73663329 7.12864201,1.50479998 10.2913505,1.50479998 C17.1772675,1.50479998 22.7783095,7.30059156 22.7783095,14.4247998 L22.7783095,16.9478414 C22.6247262,16.9074664 22.4695595,16.8750081 22.3104345,16.8520498 C22.0008928,15.1127581 20.4864344,13.7859248 18.660851,13.7859248 C16.6120175,13.7859248 14.9447674,15.4531748 14.9447674,17.5012164 L14.9447674,24.731508 C14.9447674,26.0717996 15.6643925,27.2379246 16.7307675,27.8918413 C15.5028925,28.5378413 13.4461423,29.1577163 10.0118922,29.4221329 C9.75697549,28.6272996 8.82597544,28.0509663 7.67805871,28.0509663 C6.32668364,28.0509663 5.26822525,28.8450079 5.26822525,29.8591329 C5.26822525,30.8732579 6.32668364,31.6672996 7.67805871,31.6672996 C8.53464209,31.6672996 9.27089213,31.3458829 9.69680882,30.8550496 C9.70076715,30.8542579 9.70472548,30.8550496 9.70868382,30.8542579 C14.5718924,30.5304662 17.1337259,29.4854663 18.4819343,28.4301746 C18.5421009,28.4325496 18.599101,28.4475913 18.660851,28.4475913 C20.4864344,28.4475913 22.0001011,27.120758 22.3104345,25.382258 C24.3893513,25.0719247 25.990893,23.2811747 25.990893,21.116758" id="Fill-14" fill="#5C5C60" mask="url(#mask-4)"></path>
                        </g>
                        <mask id="mask-6" fill="white">
                            <use xlink:href="#path-5"></use>
                        </mask>
                        <g id="Clip-18"></g>
                        <polygon id="Fill-17" fill="#5C5C60" mask="url(#mask-6)" points="12.417292 21.0892877 13.8573337 21.0892877 13.8573337 19.6500377 12.417292 19.6500377"></polygon>
                        <polygon id="Fill-19" fill="#5C5C60" mask="url(#mask-6)" points="15.297375 21.0892877 16.7366249 21.0892877 16.7366249 19.6500377 15.297375 19.6500377"></polygon>
                        <polygon id="Fill-20" fill="#5C5C60" mask="url(#mask-6)" points="18.1766659 21.0892877 19.6167076 21.0892877 19.6167076 19.6500377 18.1766659 19.6500377"></polygon>
                    </g>
                </g>
            </g>
        </g>
    </g>
</svg>