<?xml version="1.0" encoding="UTF-8"?>
<svg width="25px" height="34px" viewBox="0 0 25 34" version="1.1" xmlns="http://www.w3.org/2000/svg" xmlns:xlink="http://www.w3.org/1999/xlink">
    <!-- Generator: sketchtool 54.1 (76490) - https://sketchapp.com -->
    <title>88611FC3-8CE5-466C-9E4F-BBE621247E48</title>
    <desc>Created with sketchtool.</desc>
    <g id="01_DESK_MOB_HOM" stroke="none" stroke-width="1" fill="none" fill-rule="evenodd">
        <g id="01_HOM_11a" transform="translate(-90.000000, -1636.000000)">
            <g id="Group-24" transform="translate(83.000000, 1632.000000)">
                <g id="iconografia/marca/on/localizacion" transform="translate(0.000000, 2.000000)">
                    <g id="Group-28" transform="translate(7.125000, 2.375000)">
                        <path d="M7.74289584,24.8508917 L12.9425625,33.169725 C13.0304375,33.3114334 13.2362709,33.3114334 13.3249375,33.169725 L18.5246043,24.8508917 L22.1171876,19.14535 C23.6395626,16.7283917 24.256271,13.8206 23.6989376,11.0188917 C23.2928126,8.97164171 22.3119376,7.02018338 20.7571043,5.43368338 C16.5470209,1.13572505 9.72206252,1.13493339 5.50960416,5.43368338 C1.29952079,9.73085004 1.29952079,16.6998917 5.50960416,20.99785" id="Fill-1" fill="#FCD603"></path>
                        <path d="M17.847096,12.765625 C17.847096,15.7446667 15.4340959,18.1560833 12.4566375,18.1560833 C9.47917907,18.1560833 7.06538733,15.7446667 7.06538733,12.765625 C7.06538733,9.78737499 9.47917907,7.37516665 12.4566375,7.37516665 C15.4340959,7.37516665 17.847096,9.78737499 17.847096,12.765625" id="Fill-3" fill="#B5B5B5"></path>
                        <path d="M22.8128256,9.52707484 C22.3655339,7.27240821 21.2825339,5.21724158 19.6817839,3.58482494 C17.5118255,1.36894998 14.6254087,0.148199996 11.553742,0.148199996 L11.5529503,0.148199996 C8.48207522,0.148199996 5.59486681,1.36894998 3.42411675,3.58482494 C-1.0472167,8.14799153 -1.0472167,15.5746164 3.42411675,20.1385747 C3.69724176,20.4172413 4.14453344,20.4219913 4.42478345,20.1488663 C4.70345012,19.8757413 4.70820012,19.427658 4.43507511,19.1481997 C0.498116676,15.1304914 0.498116676,8.59211652 4.43507511,4.57519992 C6.33745017,2.63244996 8.8652419,1.56290831 11.5529503,1.56290831 L11.553742,1.56290831 C14.2414504,1.56290831 16.7692421,2.63244996 18.6716172,4.57519992 C20.0792005,6.01128323 21.0315756,7.8186582 21.4250339,9.80257484 C21.9372423,12.3762831 21.4092006,15.0798248 19.9390755,17.4144497 L11.553742,30.7872828 L6.76257518,23.1215746 C6.55595017,22.790658 6.11974183,22.6901163 5.78803348,22.8967413 C5.45632514,23.104158 5.35578347,23.5403663 5.56240848,23.8720746 L10.7612836,32.1885328 C10.9322836,32.4640328 11.2275753,32.6286995 11.551367,32.6294911 L11.5529503,32.6294911 C11.876742,32.6294911 12.1728253,32.4656161 12.344617,32.1901161 L21.1352839,18.1681164 C22.7993673,15.5255331 23.3954923,12.4570331 22.8128256,9.52707484" id="Fill-11" fill="#5C5C60"></path>
                        <path d="M11.5535833,6.9541583 C14.136,6.9541583 16.2370833,9.05524169 16.2370833,11.6376584 C16.2370833,14.2192835 14.136,16.3203669 11.5535833,16.3203669 C8.97116655,16.3203669 6.86929151,14.2192835 6.86929151,11.6376584 C6.86929151,9.05524169 8.97116655,6.9541583 11.5535833,6.9541583 M11.5535831,17.7350748 C14.9157913,17.7350748 17.6517912,14.9998665 17.6517912,11.6376582 C17.6517912,8.2746583 14.9157913,5.53945001 11.5535831,5.53945001 C8.19058315,5.53945001 5.45458323,8.2746583 5.45458323,11.6376582 C5.45458323,14.9998665 8.19058315,17.7350748 11.5535831,17.7350748" id="Fill-13" fill="#5C5C60"></path>
                        <path d="M5.81827494,21.536184 C5.81827494,21.4570173 5.80244161,21.369934 5.76285827,21.2907673 C5.73119161,21.2116006 5.68369161,21.1482673 5.62827494,21.084934 C5.56494161,21.0216006 5.49369161,20.9741006 5.41452494,20.942434 C5.17702494,20.847434 4.89202494,20.9028506 4.71785828,21.084934 C4.65452494,21.1482673 4.60702494,21.2116006 4.57535828,21.2907673 C4.54369161,21.369934 4.52785828,21.4570173 4.52785828,21.536184 C4.52785828,21.7103506 4.59910828,21.8766006 4.71785828,21.9953506 C4.83660828,22.1141006 5.00285828,22.1853506 5.16910828,22.1853506 C5.25619161,22.1853506 5.34327494,22.1695173 5.41452494,22.1378506 C5.49369161,22.0982673 5.56494161,22.0507673 5.62827494,21.9953506 C5.74702494,21.8766006 5.81827494,21.7103506 5.81827494,21.536184" id="Fill-15" fill="#5C5C60"></path>
                    </g>
                </g>
            </g>
        </g>
    </g>
</svg>