<?xml version="1.0" encoding="UTF-8"?>
<svg width="34px" height="29px" viewBox="0 0 34 29" version="1.1" xmlns="http://www.w3.org/2000/svg" xmlns:xlink="http://www.w3.org/1999/xlink">
    <!-- Generator: sketchtool 54.1 (76490) - https://sketchapp.com -->
    <title>63B1D2E5-E1F4-47AD-88CE-5FDD67F971D1</title>
    <desc>Created with sketchtool.</desc>
    <g id="01_DESK_MOB_HOM" stroke="none" stroke-width="1" fill="none" fill-rule="evenodd">
        <g id="01_HOM_11a" transform="translate(-413.000000, -1641.000000)">
            <g id="Group-23" transform="translate(411.000000, 1633.000000)">
                <g id="iconografia/marca/on/movil" transform="translate(0.000000, 3.000000)">
                    <g id="Page-1" transform="translate(2.375000, 4.750000)">
                        <g id="Group-3" transform="translate(1.583333, 2.468733)" fill="#FCD603">
                            <path d="M5.87100019,20.3334834 L1.56908335,25.925025 C1.273,26.3105667 0.657874977,26.1015667 0.657874977,25.6154834 L0.657874977,3.03160835 C0.657874977,1.64698335 1.78045836,0.523608349 3.16587508,0.523608349 L29.4278345,0.523608349 C30.8132512,0.523608349 31.9374179,1.64698335 31.9374179,3.03160835 L31.9374179,17.8254834 C31.9374179,19.2101084 30.8132512,20.3334834 29.4278345,20.3334834 L11.0849171,20.3334834" id="Fill-1"></path>
                        </g>
                        <path d="M8.68672102,20.4457412 C8.52838768,20.3744912 8.35422102,20.3744912 8.19588768,20.4457412 C8.11672102,20.4774079 8.04547102,20.5249079 7.99005435,20.5803245 C7.86338768,20.6990745 7.80005435,20.8653246 7.80005435,21.0394912 C7.80005435,21.2057412 7.86338768,21.3719912 7.99005435,21.4907412 C8.04547102,21.5540746 8.11672102,21.6015746 8.19588768,21.6332412 C8.27426268,21.6649079 8.35422102,21.6807413 8.44130435,21.6807413 C8.61547102,21.6807413 8.77380435,21.6094912 8.90047101,21.4907412 C9.01922101,21.3719912 9.09047101,21.2057412 9.09047101,21.0394912 C9.09047101,20.8653246 9.01922101,20.6990745 8.90047101,20.5803245 C8.83713768,20.5249079 8.76588768,20.4774079 8.68672102,20.4457412" id="Fill-4" fill="#5C5C60"></path>
                        <g id="Group-8" transform="translate(0.000000, 0.093733)" fill="#5C5C60">
                            <path d="M29.6658882,0.697933351 L2.90122091,0.697933351 C1.3020542,0.697933351 -0.000237500011,1.99943342 -0.000237500011,3.59939184 L-0.000237500011,27.1712681 C-0.000237500011,27.5591848 0.246762506,27.9019765 0.613304182,28.0262681 C0.708304185,28.0587265 0.805679187,28.0737681 0.902262523,28.0737681 C1.17776253,28.0737681 1.44376254,27.9471015 1.61555421,27.7214764 L6.36713766,21.5448928 C6.584846,21.2630594 6.53180433,20.8585178 6.24997099,20.6416011 C5.96734598,20.4238927 5.56359597,20.4785177 5.3466793,20.7595594 L1.2878042,26.0352264 L1.2878042,3.59939184 C1.2878042,2.70955846 2.01138755,1.98597509 2.90122091,1.98597509 L29.6658882,1.98597509 C30.5549299,1.98597509 31.2785133,2.70955846 31.2785133,3.59939184 L31.2785133,18.8943926 C31.2785133,19.784226 30.5549299,20.5078094 29.6658882,20.5078094 L11.0712211,20.5078094 C10.7157628,20.5078094 10.4268044,20.7967677 10.4268044,21.1522261 C10.4268044,21.5076845 10.7157628,21.7958511 11.0712211,21.7958511 L29.6658882,21.7958511 C31.2658466,21.7958511 32.566555,20.4943511 32.566555,18.8943926 L32.566555,3.59939184 C32.566555,1.99943342 31.2658466,0.697933351 29.6658882,0.697933351" id="Fill-6"></path>
                        </g>
                        <path d="M26.7094872,9.37824175 L5.85698747,9.37824175 C5.50152914,9.37824175 5.21336248,9.09007509 5.21336248,8.73461676 C5.21336248,8.37836677 5.50152914,8.09020011 5.85698747,8.09020011 L26.7094872,8.09020011 C27.0649455,8.09020011 27.3531122,8.37836677 27.3531122,8.73461676 C27.3531122,9.09007509 27.0649455,9.37824175 26.7094872,9.37824175" id="Fill-9" fill="#F8F9FD"></path>
                        <path d="M20.4542128,14.6242203 L5.85746244,14.6242203 C5.50121243,14.6242203 5.21304576,14.3360536 5.21304576,13.9798036 C5.21304576,13.6243453 5.50121243,13.3361786 5.85746244,13.3361786 L20.4542128,13.3361786 C20.8096712,13.3361786 21.0978378,13.6243453 21.0978378,13.9798036 C21.0978378,14.3360536 20.8096712,14.6242203 20.4542128,14.6242203" id="Fill-11" fill="#F8F9FD"></path>
                    </g>
                </g>
            </g>
        </g>
    </g>
</svg>