<?xml version="1.0" encoding="UTF-8"?>
<svg width="23px" height="33px" viewBox="0 0 23 33" version="1.1" xmlns="http://www.w3.org/2000/svg" xmlns:xlink="http://www.w3.org/1999/xlink">
    <!-- Generator: sketchtool 54.1 (76490) - https://sketchapp.com -->
    <title>7A8B6205-AE2F-4672-A1F6-DA4E08E9DD2D</title>
    <desc>Created with sketchtool.</desc>
    <defs>
        <polygon id="path-1" points="0.656370843 0.000158333329 20.1605833 0.000158333329 20.1605833 30.0833346 0.656370843 30.0833346"></polygon>
        <polygon id="path-3" points="0 32.1952619 21.7439164 32.1952619 21.7439164 -0.000237500011 0 -0.000237500011"></polygon>
    </defs>
    <g id="01_DESK_MOB_HOM" stroke="none" stroke-width="1" fill="none" fill-rule="evenodd">
        <g id="01_HOM_11a" transform="translate(-94.000000, -1725.000000)">
            <g id="Group-19" transform="translate(87.000000, 1720.000000)">
                <g id="iconografia/marca/on/movil" transform="translate(0.000000, 2.000000)">
                    <g id="Page-1" transform="translate(7.916667, 3.166667)">
                        <g id="Group-3" transform="translate(1.583333, 2.111929)">
                            <mask id="mask-2" fill="white">
                                <use xlink:href="#path-1"></use>
                            </mask>
                            <g id="Clip-2"></g>
                            <path d="M0.656370843,22.893575 L0.656370843,29.025825 C0.656370843,29.6092833 1.13137085,30.0834917 1.71403753,30.0834917 L19.1029962,30.0834917 C19.6872462,30.0834917 20.1614546,29.6092833 20.1614546,29.025825 L20.1614546,1.05861667 C20.1614546,0.474366667 19.6872462,0.000158333329 19.1029962,0.000158333329 L1.71403753,0.000158333329 C1.13137085,0.000158333329 0.656370843,0.474366667 0.656370843,1.05861667 L0.656370843,17.8886583 L0.656370843,22.893575 Z" id="Fill-1" fill="#FCD603" mask="url(#mask-2)"></path>
                        </g>
                        <mask id="mask-4" fill="white">
                            <use xlink:href="#path-3"></use>
                        </mask>
                        <g id="Clip-5"></g>
                        <polygon id="Fill-4" fill="#FFFFFF" mask="url(#mask-4)" points="3.91716663 23.6975118 16.8743754 23.6975118 16.8743754 4.66901237 3.91716663 4.66901237"></polygon>
                        <path d="M11.9624,27.2714913 C11.9624,28.136783 11.2609833,28.8381997 10.3964833,28.8381997 C9.53119158,28.8381997 8.83056657,28.136783 8.83056657,27.2714913 C8.83056657,26.4069913 9.53119158,25.7055747 10.3964833,25.7055747 C11.2609833,25.7055747 11.9624,26.4069913 11.9624,27.2714913" id="Fill-6" fill="#B5B5B5" mask="url(#mask-4)"></path>
                        <path d="M19.0904875,0 L1.70152916,0 C0.763404165,0 0.000237500011,0.763166646 0.000237500011,1.70129162 L0.000237500011,18.5321245 C0.000237500011,18.8875828 0.288404166,19.1765411 0.643862499,19.1765411 C0.999320831,19.1765411 1.28827916,18.8875828 1.28827916,18.5321245 L1.28827916,1.70129162 C1.28827916,1.47329163 1.47352916,1.28804163 1.70152916,1.28804163 L19.0904875,1.28804163 C19.3192791,1.28804163 19.5045291,1.47329163 19.5045291,1.70129162 L19.5045291,29.6700825 C19.5045291,29.8980825 19.3192791,30.0833325 19.0904875,30.0833325 L1.70152916,30.0833325 C1.47352916,30.0833325 1.28827916,29.8980825 1.28827916,29.6700825 L1.28827916,23.537041 C1.28827916,23.1815827 0.999320831,22.893416 0.643862499,22.893416 C0.288404166,22.893416 0.000237500011,23.1815827 0.000237500011,23.537041 L0.000237500011,29.6700825 C0.000237500011,30.6082075 0.763404165,31.3713741 1.70152916,31.3713741 L19.0904875,31.3713741 C20.0294041,31.3713741 20.7925708,30.6082075 20.7925708,29.6700825 L20.7925708,1.70129162 C20.7925708,0.763166646 20.0294041,0 19.0904875,0" id="Fill-7" fill="#5C5C60" mask="url(#mask-4)"></path>
                        <path d="M4.5623751,23.0530963 L16.2315416,23.0530963 L16.2315416,5.31263762 L4.5623751,5.31263762 L4.5623751,23.0530963 Z M3.27433346,24.3411377 L17.519583,24.3411377 L17.519583,4.02459598 L3.27433346,4.02459598 L3.27433346,24.3411377 Z" id="Fill-8" fill="#5C5C60" mask="url(#mask-4)"></path>
                        <polygon id="Fill-9" fill="#5C5C60" mask="url(#mask-4)" points="8.34416664 3.14822089 12.4497499 3.14822089 12.4497499 2.12222088 8.34416664 2.12222088"></polygon>
                        <path d="M11.3183795,27.2714915 C11.3183795,27.7805332 10.9051295,28.1937832 10.3968795,28.1937832 C9.88783781,28.1937832 9.47458781,27.7805332 9.47458781,27.2714915 C9.47458781,26.7632415 9.88783781,26.3499915 10.3968795,26.3499915 C10.9051295,26.3499915 11.3183795,26.7632415 11.3183795,27.2714915 M8.18654617,27.2714916 C8.18654617,28.4898667 9.17850453,29.481825 10.3968796,29.481825 C11.6152546,29.481825 12.6064213,28.4898667 12.6064213,27.2714916 C12.6064213,26.0531166 11.6152546,25.0619499 10.3968796,25.0619499 C9.17850453,25.0619499 8.18654617,26.0531166 8.18654617,27.2714916" id="Fill-10" fill="#5C5C60" mask="url(#mask-4)"></path>
                        <polygon id="Fill-11" fill="#5C5C60" mask="url(#mask-4)" points="7.31579181 20.0859287 8.34337512 20.0859287 8.34337512 19.059137 7.31579181 19.059137"></polygon>
                        <polygon id="Fill-12" fill="#5C5C60" mask="url(#mask-4)" points="9.88237484 20.0859287 10.9091665 20.0859287 10.9091665 19.059137 9.88237484 19.059137"></polygon>
                        <polygon id="Fill-13" fill="#5C5C60" mask="url(#mask-4)" points="12.4497499 20.0859287 13.4765416 20.0859287 13.4765416 19.059137 12.4497499 19.059137"></polygon>
                        <path d="M0.433754164,21.1206375 C0.512920831,21.1523042 0.600004164,21.1681375 0.68629583,21.1681375 C0.85254583,21.1681375 1.01879583,21.1040125 1.1383375,20.9781375 C1.20167083,20.9227209 1.24837916,20.8514709 1.28004583,20.7723042 C1.3117125,20.6931375 1.3283375,20.6139709 1.3283375,20.5268875 C1.3283375,20.3527209 1.2570875,20.1943875 1.1383375,20.0677209 C1.08212916,20.0123042 1.01087916,19.9648042 0.932504163,19.9331375 C0.77417083,19.8698042 0.591295831,19.8698042 0.433754164,19.9331375 C0.353795831,19.9648042 0.290462498,20.0123042 0.227129165,20.0677209 C0.109170832,20.1864709 0.0379208323,20.3527209 0.0379208323,20.5268875 C0.0379208323,20.6139709 0.0537541656,20.6931375 0.0854208322,20.7723042 C0.117087499,20.8514709 0.163795832,20.9227209 0.227129165,20.9781375 C0.290462498,21.0414709 0.353795831,21.0889709 0.433754164,21.1206375" id="Fill-14" fill="#5C5C60" mask="url(#mask-4)"></path>
                    </g>
                </g>
            </g>
        </g>
    </g>
</svg>